<?xml version="1.0" standalone="no"?>
<!DOCTYPE svg PUBLIC "-//W3C//DTD SVG 20010904//EN"
 "http://www.w3.org/TR/2001/REC-SVG-20010904/DTD/svg10.dtd">
<svg version="1.0" xmlns="http://www.w3.org/2000/svg"
 width="1176.000000pt" height="1066.000000pt" viewBox="0 0 1176.000000 1066.000000"
 preserveAspectRatio="xMidYMid meet">

<g transform="translate(0.000000,1066.000000) scale(0.100000,-0.100000)"
fill="#000000" stroke="none">
<path d="M9005 10639 c-155 -23 -316 -76 -460 -153 -152 -81 -5270 -3039
-5345 -3089 -113 -75 -283 -251 -368 -380 -108 -164 -191 -386 -217 -577 l-6
-45 -482 -278 c-265 -152 -637 -367 -827 -476 -240 -138 -353 -209 -372 -232
-43 -56 -891 -1530 -910 -1584 -16 -47 -17 -121 -18 -1071 0 -1149 -4 -1090
73 -1170 56 -58 2654 -1559 2728 -1576 36 -9 62 -9 98 0 32 7 212 105 534 292
267 154 490 280 495 280 6 0 24 -26 42 -57 104 -183 315 -308 541 -320 201
-11 365 57 591 244 220 182 387 430 483 715 36 107 75 307 75 382 l0 41 1199
693 c660 380 1202 692 1205 692 3 0 21 -24 41 -54 85 -129 247 -242 400 -281
92 -23 246 -20 343 8 151 44 333 168 498 340 118 122 212 258 285 412 29 61
53 111 55 113 1 2 24 -8 51 -21 71 -36 147 -56 238 -63 157 -12 300 31 462
139 246 164 422 366 548 630 67 139 100 240 126 382 11 61 23 125 27 143 7 32
22 42 257 178 142 81 268 161 292 184 77 74 73 13 73 1179 0 1025 -5 1245 -35
1471 -108 815 -475 1560 -1050 2136 -275 276 -579 501 -860 640 -210 103 -392
145 -620 143 -71 -1 -157 -5 -190 -10z m440 -514 c112 -33 214 -86 385 -200
192 -128 313 -227 486 -400 229 -228 405 -462 557 -740 92 -168 251 -545 236
-559 -2 -2 -1077 -621 -2389 -1376 -1312 -755 -2404 -1383 -2426 -1397 l-42
-23 -42 107 c-129 326 -306 630 -531 913 -109 137 -395 423 -534 534 -139 110
-365 262 -487 326 -95 50 -266 112 -347 125 -35 6 -41 9 -30 20 35 32 4524
2613 4595 2642 171 69 392 80 569 28z m-5175 -2972 c143 -28 295 -103 508
-250 369 -256 681 -585 917 -968 71 -115 241 -452 232 -461 -4 -4 -2545 1385
-2566 1403 -9 7 66 76 132 120 37 26 67 49 67 53 0 3 9 6 21 7 11 1 57 18 102
37 193 82 378 101 587 59z m6990 -632 l0 -418 -387 -223 c-214 -123 -487 -281
-608 -350 -121 -70 -1805 -1041 -3743 -2158 -1937 -1118 -3525 -2032 -3527
-2032 -3 0 -5 196 -5 435 l0 434 414 718 415 718 738 427 c406 235 741 427
745 428 4 0 9 -223 10 -495 l3 -495 2970 1715 c1634 943 2971 1715 2973 1715
1 0 2 -188 2 -419z m-8047 -768 c175 -101 333 -192 350 -201 150 -80 1486
-859 1485 -864 -2 -4 -326 -194 -722 -422 l-718 -415 -48 27 c-423 243 -2158
1247 -2157 1249 1 0 328 188 727 416 626 360 727 414 745 405 11 -6 163 -94
338 -195z m7385 -680 c70 -43 106 -108 110 -199 8 -145 -40 -351 -118 -505
-59 -119 -115 -196 -219 -300 -112 -113 -228 -192 -305 -210 -99 -22 -211 32
-255 124 -17 35 -21 62 -21 139 0 290 131 585 352 794 93 89 146 124 228 156
36 14 72 28 80 32 31 12 102 -2 148 -31z m-1378 -793 c48 -25 105 -88 120
-136 19 -57 7 -237 -24 -357 -29 -115 -106 -282 -172 -374 -98 -137 -263 -285
-379 -339 -118 -56 -258 -7 -314 109 -40 83 -22 296 40 473 91 262 261 468
500 609 81 48 155 53 229 15z m-4151 -2405 c106 -37 161 -120 161 -245 0 -147
-48 -347 -117 -485 -102 -205 -304 -411 -478 -491 -48 -22 -67 -26 -113 -21
-69 7 -136 47 -177 106 l-30 43 1 136 c1 170 28 282 107 446 90 186 217 334
385 448 115 78 177 93 261 63z"/>
</g>
</svg>
